<?xml version="1.0" encoding="UTF-8" standalone="no"?>
<svg width="350px" height="350px" viewBox="0 0 350 350" version="1.1" xmlns="http://www.w3.org/2000/svg" xmlns:xlink="http://www.w3.org/1999/xlink">
    <!-- Generator: Sketch 3.8.3 (29802) - http://www.bohemiancoding.com/sketch -->
    <title>Artboard</title>
    <desc>Created with Sketch.</desc>
    <defs></defs>
    <g id="icons-&amp;-style-elements" stroke="none" stroke-width="1" fill="none" fill-rule="evenodd">
        <g id="Artboard" fill="#565A61">
            <path d="M181.321112,344.566672 L190.718174,283.080122 L190.787713,283.038399 C213.267415,279.774693 234.921917,269.515345 252.218631,252.218631 C269.459714,234.977549 279.617071,213.392585 282.913228,190.991695 L283.089394,190.718174 L344.571307,181.325748 C347.695935,180.84361 350,178.159397 350,175.006954 C350,171.849875 347.695935,169.165662 344.571307,168.68816 L283.084758,159.281826 C276.191107,111.540856 238.454508,73.8088931 190.713538,66.9152417 L181.316476,5.42869253 C180.838974,2.30406506 178.150125,0 174.997682,0 C171.840603,0 169.15639,2.30406506 168.678888,5.42869253 L159.281826,66.9152417 L159.003669,67.0682279 C136.602779,70.3643853 115.022451,80.5402864 97.7813688,97.7813688 C80.5449223,115.017815 70.3690213,136.593507 67.0682279,158.989761 L66.9106057,159.281826 L5.42869253,168.674252 C2.30870101,169.15639 0,171.840603 0,174.997682 C0,178.154761 2.30406506,180.838974 5.42869253,181.316476 L66.9059698,190.708902 C73.7996212,238.449872 111.53622,276.186471 159.27719,283.075486 L168.674252,344.562036 C169.151754,347.686663 171.840603,349.990728 174.993046,349.990728 C178.154761,349.995364 180.838974,347.691299 181.321112,344.566672 L181.321112,344.566672 Z M253.887572,230.513133 C252.524604,232.446322 251.101368,234.328516 249.603958,236.150443 C249.404612,236.396148 249.219174,236.646489 249.015193,236.887558 C248.825119,237.11472 248.653589,237.355789 248.458879,237.58295 L248.417156,237.541227 C248.134363,237.870379 247.819119,238.176351 247.536326,238.505504 L227.430229,218.399407 C224.940726,215.900632 220.884274,215.900632 218.394771,218.399407 C215.895996,220.893545 215.895996,224.940726 218.394771,227.434865 L238.514775,247.55487 C237.41142,248.519146 236.298793,249.464879 235.162987,250.373525 C234.889466,250.591414 234.620581,250.823212 234.34706,251.041101 C232.914553,252.163 231.449594,253.224631 229.970727,254.249175 C229.669391,254.462429 229.377326,254.684954 229.071354,254.893572 C227.68057,255.834669 226.266607,256.720135 224.838735,257.58242 C224.384413,257.855941 223.943998,258.152642 223.485039,258.421527 C214.120429,263.896579 203.75909,267.85104 192.725539,269.900128 L202.952435,202.952435 L269.904764,192.720903 C267.331815,206.600925 261.726956,219.405407 253.887572,230.513133 L253.887572,230.513133 Z M301.27621,174.997682 L199.577467,190.537372 L184.042412,174.997682 L199.582103,159.457992 L301.27621,174.997682 L301.27621,174.997682 Z M234.708664,99.2416917 C235.672941,100.001987 236.651125,100.743738 237.58295,101.536485 L237.550499,101.568937 C237.879651,101.851729 238.185623,102.166974 238.514775,102.449766 L218.366955,122.597587 C215.86818,125.091725 215.86818,129.138906 218.366955,131.633045 C219.614024,132.88475 221.250513,133.505967 222.887002,133.505967 C224.523491,133.505967 226.15998,132.880114 227.407049,131.633045 L247.568778,111.471317 C248.356888,112.375326 249.121819,113.283972 249.872843,114.206525 C250.466244,114.934368 251.055009,115.666848 251.629866,116.417871 C260.66996,128.202445 267.100017,142.087103 269.918672,157.265189 L202.966343,147.033657 L192.739447,80.0859637 C208.385764,83.0019736 222.683021,89.7426388 234.708664,99.2416917 L234.708664,99.2416917 Z M174.997682,48.7145185 L190.537372,150.417897 L174.997682,165.957588 L159.453356,150.417897 L174.997682,48.7145185 L174.997682,48.7145185 Z M95.282594,120.678305 C96.7058294,118.601401 98.1986039,116.575493 99.7794614,114.619124 C100.451674,113.780018 101.184153,112.977999 101.888817,112.157437 C102.078891,111.934911 102.2736,111.717022 102.459038,111.489861 L122.379697,131.415156 C123.631403,132.666861 125.267891,133.288078 126.90438,133.288078 C128.540869,133.288078 130.177358,132.662225 131.424427,131.419792 C133.923202,128.921017 133.923202,124.873836 131.429063,122.379697 L111.517676,102.463674 C112.078626,101.9769 112.602488,101.43913 113.168073,100.966264 L113.149529,100.94772 C114.45223,99.8582725 115.80129,98.8198207 117.159622,97.7999126 C118.072904,97.1137926 119.000093,96.4647602 119.931918,95.8157278 C121.123356,94.9858935 122.314794,94.1606951 123.54332,93.3818562 C124.298979,92.9043538 125.06391,92.463939 125.828841,92.0096163 C127.07591,91.2678649 128.332252,90.5446574 129.611773,89.8585374 C138.151185,85.278223 147.432348,81.9171623 157.269825,80.0905996 L147.038293,147.038293 L80.0859637,157.269825 C82.5708306,143.88585 87.8650807,131.503239 95.282594,120.678305 L95.282594,120.678305 Z M48.7191544,174.997682 L150.417897,159.457992 L165.957588,174.997682 L150.417897,190.537372 L48.7191544,174.997682 L48.7191544,174.997682 Z M115.996,251.268262 C115.356239,250.772216 114.721115,250.27617 114.095262,249.766216 C113.214432,249.047644 112.352146,248.291985 111.494496,247.536326 L131.563506,227.467317 C134.062281,224.973178 134.062281,220.925997 131.563506,218.431858 C129.074003,215.933083 125.01755,215.933083 122.528047,218.431858 L102.472946,238.48696 C101.986172,237.92601 101.448402,237.402148 100.975535,236.836563 L100.952356,236.859743 C100.372862,236.168987 99.8397287,235.436507 99.2787793,234.727208 C98.615839,233.888102 97.9297191,233.058267 97.2945945,232.200617 C96.4044929,230.995271 95.5700226,229.752838 94.7355524,228.505768 C94.1004278,227.5554 93.4792111,226.595759 92.8811741,225.626846 C92.0142522,224.22679 91.1612382,222.817463 90.3638555,221.371048 C85.5100203,212.567387 81.9820655,202.938527 80.0813277,192.730175 L147.033657,202.961707 L157.265189,269.9094 C141.906301,267.049022 127.873293,260.484523 115.996,251.268262 L115.996,251.268262 Z M159.457992,199.577467 L174.997682,184.037776 L190.537372,199.577467 L174.997682,301.280846 L159.457992,199.577467 L159.457992,199.577467 Z" id="Shape"></path>
        </g>
    </g>
</svg>